<svg width="24" height="26" viewBox="0 0 24 26" fill="none" xmlns="http://www.w3.org/2000/svg">
<path fill-rule="evenodd" clip-rule="evenodd" d="M11.4779 1.50038C11.6568 1.36242 11.8779 1.27752 12.099 1.27752C12.4359 1.27752 12.7517 1.4261 12.9518 1.69141L18.9842 9.48115V15.7002L20.7845 17.5044C21.1951 17.9183 21.1951 18.5975 20.7845 19.0114C20.3739 19.4253 19.7001 19.4253 19.2895 19.0114L16.8786 16.5704V10.2134L11.2884 2.99678V2.98617C10.9304 2.52982 11.0146 1.86122 11.4779 1.50038ZM24.0001 18.2293C23.821 18.1845 23.6514 18.0914 23.5112 17.9501L21.3951 15.8169C21.1529 15.5729 21.0477 15.2439 21.0898 14.9361V8.70642H21.0582L14.9942 0.874234C14.8333 0.669206 14.7618 0.421333 14.7728 0.177777C14.0818 0.0608719 13.3718 0 12.6476 0C5.66253 0 0 5.66253 0 12.6476C0 19.6327 5.66253 25.2952 12.6476 25.2952C17.6292 25.2952 21.9381 22.4152 24.0001 18.2293Z" fill="#151519"/>
</svg>

