<svg width="24" height="26" viewBox="0 0 24 26" fill="none" xmlns="http://www.w3.org/2000/svg">
<path fill-rule="evenodd" clip-rule="evenodd" d="M11.4779 1.50053C11.6568 1.36257 11.8779 1.27766 12.099 1.27766C12.4359 1.27766 12.7517 1.42624 12.9518 1.69156L18.9842 9.4813V15.7003L20.7845 17.5045C21.1951 17.9184 21.1951 18.5976 20.7845 19.0115C20.3739 19.4254 19.7001 19.4254 19.2895 19.0115L16.8786 16.5706V10.2136L11.2884 2.99693V2.98631C10.9304 2.52997 11.0146 1.86136 11.4779 1.50053ZM24 18.2294C23.821 18.1846 23.6514 18.0916 23.5112 17.9502L21.3951 15.8171C21.1529 15.573 21.0477 15.244 21.0898 14.9362V8.70657H21.0582L14.9942 0.874381C14.8333 0.669312 14.7617 0.421381 14.7728 0.177778C14.0818 0.0608723 13.3718 0 12.6476 0C5.66253 0 0 5.66253 0 12.6476C0 19.6327 5.66253 25.2952 12.6476 25.2952C17.6291 25.2952 21.938 22.4152 24 18.2294Z" fill="#282A30"/>
</svg>
